
<svg width="67" height="27" viewBox="0 0 67 27" fill="none" xmlns="http://www.w3.org/2000/svg">
<path d="M24.7254 17.3609H13.044C12.7339 17.3609 12.5788 17.2058 12.5788 16.8957V10.6931C12.5788 10.3486 12.7339 10.1763 13.044 10.1763H28.4469C28.9983 10.1763 29.5324 10.3141 30.0493 10.5898C30.6006 10.831 31.083 11.1756 31.4965 11.6235C31.9445 12.0715 32.2891 12.5711 32.5303 13.1225C32.8059 13.6738 32.9438 14.2251 32.9438 14.7765V22.3746C32.9438 22.9604 32.8059 23.5289 32.5303 24.0803C32.2891 24.5972 31.9445 25.0796 31.4965 25.5275C31.083 25.941 30.6006 26.2856 30.0493 26.5613C29.5324 26.8025 28.9983 26.9231 28.4469 26.9231H5.18744C4.6361 26.9231 4.08477 26.8025 3.53343 26.5613C3.01655 26.2856 2.53413 25.941 2.08617 25.5275C1.67267 25.0796 1.32809 24.5972 1.05242 24.0803C0.77675 23.5289 0.638916 22.9604 0.638916 22.3746V5.21424C0.638916 4.6629 0.77675 4.11157 1.05242 3.56023C1.32809 3.0089 1.67267 2.52648 2.08617 2.11297C2.53413 1.66501 3.01655 1.32043 3.53343 1.07922C4.08477 0.803551 4.6361 0.665717 5.18744 0.665717H32.4786C32.7887 0.665717 32.9438 0.82078 32.9438 1.13091V7.95369C32.9438 8.26382 32.7887 8.41888 32.4786 8.41888H8.90896V19.1183H24.7254V17.3609Z" fill="#72F34B"/>
<path d="M37.8295 25.941H44.859V16.6372H65.3274V10.6415H44.859V7.95369H65.3791V1.33766H41.7061C41.2236 1.33766 40.7585 1.45826 40.3105 1.69947C39.8625 1.90622 39.449 2.19912 39.07 2.57816C38.6909 2.95721 38.3808 3.38794 38.1396 3.87036C37.9329 4.35278 37.8295 4.8352 37.8295 5.31762V25.941ZM44.859 26.9231H37.8295C37.1748 26.9231 36.8474 26.5958 36.8474 25.941V5.31762C36.8474 4.69736 36.9852 4.09434 37.2609 3.50855C37.571 2.92275 37.9501 2.40587 38.398 1.95791C38.8805 1.47549 39.3973 1.09645 39.9487 0.820781C40.5345 0.510654 41.1203 0.355591 41.7061 0.355591H65.3791C66.0338 0.355591 66.3611 0.682946 66.3611 1.33766V7.95369C66.3611 8.60841 66.0338 8.93576 65.3791 8.93576H45.8411V9.65939H65.3274C65.9821 9.65939 66.3094 9.98675 66.3094 10.6415V16.6372C66.3094 17.292 65.9821 17.6193 65.3274 17.6193H45.8411V25.941C45.8411 26.5958 45.5137 26.9231 44.859 26.9231Z" fill="#72F34B"/>
</svg>
