<svg width="24" height="22" viewBox="0 0 24 22" fill="none" xmlns="http://www.w3.org/2000/svg">
<path d="M23.6329 9.226L12.6329 0.226001C12.4542 0.0799443 12.2306 0.000152588 11.9999 0.000152588C11.7691 0.000152588 11.5455 0.0799443 11.3669 0.226001L0.366855 9.226C0.166181 9.39532 0.0401479 9.63677 0.0159702 9.89821C-0.00820746 10.1597 0.0714096 10.4201 0.237631 10.6234C0.403851 10.8266 0.643339 10.9563 0.904384 10.9845C1.16543 11.0127 1.42708 10.9371 1.63285 10.774L2.99985 9.656V21C2.99985 21.2652 3.10521 21.5196 3.29275 21.7071C3.48028 21.8946 3.73464 22 3.99985 22H9.99986V16H13.9999V22H19.9999C20.2651 22 20.5194 21.8946 20.707 21.7071C20.8945 21.5196 20.9999 21.2652 20.9999 21V9.656L22.3669 10.774C22.4682 10.8595 22.5856 10.924 22.7121 10.9638C22.8386 11.0035 22.9718 11.0177 23.1038 11.0055C23.2359 10.9932 23.3642 10.9549 23.4812 10.8926C23.5983 10.8304 23.7019 10.7454 23.7858 10.6428C23.8698 10.5401 23.9325 10.4218 23.9703 10.2947C24.008 10.1676 24.0202 10.0342 24.0059 9.90237C23.9917 9.77052 23.9514 9.64282 23.8873 9.52671C23.8233 9.41059 23.7368 9.30837 23.6329 9.226Z" fill="white"/>
</svg>
