<svg width="30" height="24" viewBox="0 0 30 24" fill="none" xmlns="http://www.w3.org/2000/svg">
<path d="M24 3H6C4.89543 3 4 3.89543 4 5V19C4 20.1046 4.89543 21 6 21H13.7059H24C25.1046 21 26 20.1046 26 19V11.1429V5C26 3.89543 25.1046 3 24 3Z" fill="#25262F"/>
<path d="M8.18674 15H7.23963C7.07988 15 7 14.9238 7 14.7714V8.22862C7 8.07621 7.07988 8 7.23963 8H8.09546C8.25521 8 8.36171 8.0508 8.41496 8.15241L10.72 12.2784H10.7656V8.22862C10.7656 8.07621 10.8455 8 11.0053 8H11.9524C12.1121 8 12.192 8.07621 12.192 8.22862V14.7714C12.192 14.9238 12.1121 15 11.9524 15H11.1194C10.952 15 10.8303 14.9274 10.7542 14.7823L8.47202 10.7325H8.42637V14.7714C8.42637 14.9238 8.3465 15 8.18674 15Z" fill="#FFFFFF"/>
<path d="M14.8846 15H13.9146C13.7549 15 13.675 14.9238 13.675 14.7714V8.22862C13.675 8.07621 13.7549 8 13.9146 8H17.5547C17.7069 8 17.7829 8.07621 17.7829 8.22862V8.9689C17.7829 9.12131 17.7069 9.19751 17.5547 9.19751H15.2611C15.1698 9.19751 15.1242 9.23743 15.1242 9.31726V11.0047C15.1242 11.0918 15.1698 11.1353 15.2611 11.1353H17.2124C17.3721 11.1353 17.452 11.2115 17.452 11.3639V12.0933C17.452 12.253 17.3721 12.3328 17.2124 12.3328H15.2611C15.1698 12.3328 15.1242 12.3727 15.1242 12.4526V14.7714C15.1242 14.9238 15.0443 15 14.8846 15Z" fill="#FFFFFF"/>
<path d="M21.083 15H20.1244C19.9571 15 19.8734 14.9238 19.8734 14.7714V9.31726C19.8734 9.23743 19.8315 9.19751 19.7479 9.19751H18.447C18.2873 9.19751 18.2074 9.12131 18.2074 8.9689V8.22862C18.2074 8.07621 18.2873 8 18.447 8H22.7604C22.9201 8 23 8.07621 23 8.22862V8.9689C23 9.12131 22.9201 9.19751 22.7604 9.19751H21.4595C21.3682 9.19751 21.3226 9.23743 21.3226 9.31726V14.7714C21.3226 14.9238 21.2427 15 21.083 15Z" fill="#FFFFFF"/>
<path fill-rule="evenodd" clip-rule="evenodd" d="M3 5C3 3.34315 4.34315 2 6 2H24C25.6569 2 27 3.34315 27 5V12.1429C27 12.6951 26.5523 13.1429 26 13.1429C25.4477 13.1429 25 12.6951 25 12.1429V5C25 4.44771 24.5523 4 24 4H6C5.44772 4 5 4.44772 5 5V19C5 19.5523 5.44772 20 6 20H19C19.5523 20 20 20.4477 20 21C20 21.5523 19.5523 22 19 22H6C4.34315 22 3 20.6569 3 19V5Z" fill="#FFFFFF"/>
<path d="M29.5692 20.0977L25.9025 16.431C25.8402 16.3687 25.7552 16.3333 25.6668 16.3333H22.6668C22.4828 16.3333 22.3335 16.4827 22.3335 16.6667V19.6667C22.3335 19.755 22.3685 19.84 22.4312 19.9023L23.6668 21.138V22.6667C23.6668 22.8507 23.8162 23 24.0002 23C24.1842 23 24.3335 22.8507 24.3335 22.6667V19C23.9652 19 23.6668 18.7017 23.6668 18.3333C23.6668 17.965 23.9652 17.6667 24.3335 17.6667C24.7015 17.6667 25.0002 17.965 25.0002 18.3333V22.4713L26.0978 23.569C26.1628 23.6343 26.2482 23.6667 26.3335 23.6667C26.4188 23.6667 26.5042 23.634 26.5692 23.569L29.5692 20.569C29.6995 20.439 29.6995 20.228 29.5692 20.0977Z" fill="#FFFFFF"/>
</svg>
