<svg width="24" height="24" viewBox="0 0 24 24" fill="none" xmlns="http://www.w3.org/2000/svg">
<path d="M17 8H7C3.14 8 0 11.14 0 15C0 18.86 3.14 22 7 22H17C20.86 22 24 18.86 24 15C24 11.14 20.86 8 17 8ZM10 16H8V18H6V16H4V14H6V12H8V14H10V16ZM15 17C14.448 17 14 16.552 14 16C14 15.448 14.448 15 15 15C15.552 15 16 15.448 16 16C16 16.552 15.552 17 15 17ZM18 15C17.448 15 17 14.552 17 14C17 13.448 17.448 13 18 13C18.552 13 19 13.448 19 14C19 14.552 18.552 15 18 15Z" fill="#FFFFFF"/>
<path d="M13 2C13 1.448 12.552 1 12 1C11.448 1 11 1.448 11 2V6H13V2Z" fill="#FFFFFF"/>
</svg>
