<svg width="24" height="24" viewBox="0 0 24 24" fill="none" xmlns="http://www.w3.org/2000/svg">
<g clip-path="url(#clip0_299_1977)">
<path d="M23.5797 0.424C23.4806 0.32426 23.3616 0.246526 23.2305 0.195867C23.0994 0.145209 22.9591 0.122765 22.8187 0.13C8.79067 0.862 3.60867 13.358 3.55867 13.484C3.4855 13.6658 3.46734 13.865 3.50645 14.057C3.54556 14.2491 3.64022 14.4253 3.77867 14.564L9.43567 20.221C9.57499 20.3601 9.75226 20.455 9.94527 20.4938C10.1383 20.5326 10.3384 20.5135 10.5207 20.439C10.6457 20.388 23.0747 15.148 23.8687 1.186C23.8767 1.04582 23.8551 0.905513 23.8053 0.774224C23.7555 0.642935 23.6786 0.523605 23.5797 0.424ZM15.4137 11.414C15.134 11.6938 14.7776 11.8843 14.3897 11.9615C14.0017 12.0387 13.5995 11.9992 13.234 11.8478C12.8685 11.6965 12.5561 11.4401 12.3364 11.1112C12.1166 10.7823 11.9992 10.3956 11.9992 10C11.9992 9.60441 12.1166 9.21771 12.3364 8.8888C12.5561 8.55989 12.8685 8.30354 13.234 8.15218C13.5995 8.00083 14.0017 7.96125 14.3897 8.03847C14.7776 8.11569 15.134 8.30624 15.4137 8.586C15.7886 8.96106 15.9992 9.46967 15.9992 10C15.9992 10.5303 15.7886 11.0389 15.4137 11.414Z" fill="#ffffff"/>
<path d="M1.113 18.844C1.37676 18.5784 1.69035 18.3675 2.03579 18.2234C2.38123 18.0793 2.75171 18.0048 3.12601 18.0042C3.5003 18.0035 3.87104 18.0768 4.21697 18.2197C4.56289 18.3626 4.8772 18.5725 5.14187 18.8371C5.40653 19.1018 5.61635 19.4161 5.7593 19.762C5.90224 20.108 5.97549 20.4787 5.97485 20.853C5.97421 21.2273 5.8997 21.5978 5.75558 21.9432C5.61146 22.2886 5.40057 22.6022 5.135 22.866C4.024 23.977 0 24 0 24C0 24 0 19.954 1.113 18.844Z" fill="#ffffff"/>
<path d="M10.3573 2.341C8.94787 2.09569 7.50007 2.19334 6.13633 2.6257C4.77258 3.05806 3.53298 3.81242 2.52233 4.825C1.98753 5.36476 1.52256 5.96948 1.13833 6.625C1.02581 6.81605 0.979983 7.03907 1.00804 7.25901C1.0361 7.47894 1.13645 7.68332 1.29333 7.84L3.28233 9.83C5.13055 6.89682 7.53387 4.35286 10.3573 2.341Z" fill="#ffffff"/>
<path d="M21.6589 13.643C21.9042 15.0525 21.8066 16.5003 21.3742 17.864C20.9419 19.2277 20.1875 20.4673 19.1749 21.478C18.6352 22.0128 18.0304 22.4778 17.3749 22.862C17.1839 22.9745 16.9608 23.0203 16.7409 22.9923C16.521 22.9642 16.3166 22.8639 16.1599 22.707L14.1699 20.718C17.1031 18.8698 19.6471 16.4665 21.6589 13.643Z" fill="#ffffff"/>
</g>
<defs>
<clipPath id="clip0_299_1977">
<rect width="24" height="24" fill="white"/>
</clipPath>
</defs>
</svg>
