<svg width="32" height="13" viewBox="0 0 32 13" fill="none" xmlns="http://www.w3.org/2000/svg">
<path d="M11.7277 8.27985H6.04001C5.88902 8.27985 5.81351 8.20433 5.81351 8.05335V5.03331C5.81351 4.86558 5.88902 4.78168 6.04001 4.78168H13.5397C13.8081 4.78168 14.0682 4.84878 14.3199 4.98301C14.5883 5.10045 14.8232 5.26824 15.0245 5.48632C15.2426 5.70445 15.4104 5.94771 15.5279 6.21618C15.662 6.48461 15.7292 6.75304 15.7292 7.02151V10.721C15.7292 11.0062 15.662 11.283 15.5279 11.5515C15.4104 11.8032 15.2426 12.0381 15.0245 12.2562C14.8232 12.4575 14.5883 12.6253 14.3199 12.7595C14.0682 12.8769 13.8081 12.9357 13.5397 12.9357H2.21467C1.94622 12.9357 1.67778 12.8769 1.40933 12.7595C1.15767 12.6253 0.922776 12.4575 0.704665 12.2562C0.503333 12.0381 0.335557 11.8032 0.201334 11.5515C0.0671111 11.283 0 11.0062 0 10.721V2.36567C0 2.09722 0.0671111 1.82878 0.201334 1.56033C0.335557 1.29189 0.503333 1.057 0.704665 0.855664C0.922776 0.637553 1.15767 0.469778 1.40933 0.352333C1.67778 0.21811 1.94622 0.150999 2.21467 0.150999H15.5027C15.6537 0.150999 15.7292 0.226499 15.7292 0.377501V3.6995C15.7292 3.8505 15.6537 3.926 15.5027 3.926H4.02667V9.13552H11.7277V8.27985Z" fill="#72F34B"/>
<path d="M18.108 12.4575H21.5307V7.92748H31.4967V5.00819H21.5307V3.6995H31.5219V0.478167H19.9955C19.7606 0.478167 19.5342 0.536887 19.316 0.654332C19.0979 0.754998 18.8966 0.897611 18.712 1.08216C18.5274 1.26672 18.3765 1.47644 18.259 1.71133C18.1584 1.94622 18.108 2.18111 18.108 2.416V12.4575ZM21.5307 12.9357H18.108C17.7893 12.9357 17.6299 12.7763 17.6299 12.4575V2.416C17.6299 2.114 17.6969 1.82039 17.8312 1.53517C17.9822 1.24994 18.1668 0.998277 18.3848 0.780166C18.6198 0.545277 18.8714 0.360723 19.1399 0.2265C19.4251 0.0754999 19.7103 0 19.9955 0H31.5219C31.8407 0 32 0.159388 32 0.478167V3.6995C32 4.01828 31.8407 4.17767 31.5219 4.17767H22.0089V4.53H31.4967C31.8155 4.53 31.9748 4.68939 31.9748 5.00819V7.92748C31.9748 8.2463 31.8155 8.40567 31.4967 8.40567H22.0089V12.4575C22.0089 12.7763 21.8495 12.9357 21.5307 12.9357Z" fill="#72F34B"/>
</svg>
